<?xml version="1.0" standalone="no"?>
<svg viewBox="0 0 200 200" xmlns="http://www.w3.org/2000/svg">
  <path fill="#AC8791" d="M20.3,-31.7C30.8,-29,47,-32.7,49.2,-28.5C51.5,-24.3,39.8,-12.2,39.2,-0.3C38.6,11.5,49.1,22.9,51.9,35.9C54.8,49,49.9,63.5,40,63.8C30.1,64,15,49.9,0.1,49.7C-14.8,49.4,-29.6,63.1,-40.6,63.6C-51.7,64,-59,51.1,-63.7,38.3C-68.5,25.5,-70.7,12.8,-67.6,1.8C-64.5,-9.2,-56,-18.3,-47.6,-24.8C-39.2,-31.4,-30.9,-35.3,-23,-39.5C-15.1,-43.7,-7.5,-48.3,-1.3,-45.9C4.9,-43.6,9.7,-34.4,20.3,-31.7Z" transform="translate(100 100)" />
</svg>
