<?xml version="1.0" standalone="no"?>
<svg viewBox="0 0 200 200" xmlns="http://www.w3.org/2000/svg">
  <path fill="#E4BCC7" d="M46.3,-75.9C60.6,-72,73,-60.7,71.7,-46.8C70.3,-32.9,55.2,-16.5,51.6,-2.1C47.9,12.2,55.7,24.5,53.9,32.9C52.1,41.3,40.7,46,30.1,48.1C19.5,50.3,9.7,50,-2.6,54.5C-15,59,-29.9,68.4,-35.4,63.3C-41,58.2,-37.1,38.7,-38.3,25.7C-39.6,12.8,-46,6.4,-54,-4.6C-62,-15.6,-71.5,-31.2,-66.7,-38C-62,-44.9,-42.8,-43,-29.3,-47.3C-15.8,-51.7,-7.9,-62.3,4.1,-69.4C16,-76.4,32.1,-79.9,46.3,-75.9Z" transform="translate(100 100)" />
</svg>
