<svg xmlns="http://www.w3.org/2000/svg" version="1.1" xmlnsXlink="http://www.w3.org/1999/xlink" xmlnsSvgjs="http://svgjs.dev/svgjs" viewBox="0 0 2400 800"><defs><linearGradient x1="50%" y1="0%" x2="50%" y2="100%" id="sssurf-grad"><stop stop-color="hsla(217, 52%, 74%, 1.00)" stop-opacity="1" offset="0%"></stop><stop stop-color="#D0E2FF" stop-opacity="1" offset="100%"></stop></linearGradient></defs><g fill="url(#sssurf-grad)" transform="matrix(1,0,0,1,0,-92.43096923828125)"><path d="M 0 332.59506714635523 Q 450 634.6508943880074 600 316.20189707873254 Q 1050 614.2666816894337 1200 318.45322389040354 Q 1650 586.3490966580127 1800 304.86195369779733 Q 2250 637.380333204139 2400 308.4744831540113 L 2400 800 L 0 800 L 0 331.9936101527187 Z" transform="matrix(1,0,0,1,0,35)" opacity="0.05"></path><path d="M 0 332.59506714635523 Q 450 634.6508943880074 600 316.20189707873254 Q 1050 614.2666816894337 1200 318.45322389040354 Q 1650 586.3490966580127 1800 304.86195369779733 Q 2250 637.380333204139 2400 308.4744831540113 L 2400 800 L 0 800 L 0 331.9936101527187 Z" transform="matrix(1,0,0,1,0,70)" opacity="0.21"></path><path d="M 0 332.59506714635523 Q 450 634.6508943880074 600 316.20189707873254 Q 1050 614.2666816894337 1200 318.45322389040354 Q 1650 586.3490966580127 1800 304.86195369779733 Q 2250 637.380333204139 2400 308.4744831540113 L 2400 800 L 0 800 L 0 331.9936101527187 Z" transform="matrix(1,0,0,1,0,105)" opacity="0.37"></path><path d="M 0 332.59506714635523 Q 450 634.6508943880074 600 316.20189707873254 Q 1050 614.2666816894337 1200 318.45322389040354 Q 1650 586.3490966580127 1800 304.86195369779733 Q 2250 637.380333204139 2400 308.4744831540113 L 2400 800 L 0 800 L 0 331.9936101527187 Z" transform="matrix(1,0,0,1,0,140)" opacity="0.53"></path><path d="M 0 332.59506714635523 Q 450 634.6508943880074 600 316.20189707873254 Q 1050 614.2666816894337 1200 318.45322389040354 Q 1650 586.3490966580127 1800 304.86195369779733 Q 2250 637.380333204139 2400 308.4744831540113 L 2400 800 L 0 800 L 0 331.9936101527187 Z" transform="matrix(1,0,0,1,0,175)" opacity="0.68"></path><path d="M 0 332.59506714635523 Q 450 634.6508943880074 600 316.20189707873254 Q 1050 614.2666816894337 1200 318.45322389040354 Q 1650 586.3490966580127 1800 304.86195369779733 Q 2250 637.380333204139 2400 308.4744831540113 L 2400 800 L 0 800 L 0 331.9936101527187 Z" transform="matrix(1,0,0,1,0,210)" opacity="0.84"></path><path d="M 0 332.59506714635523 Q 450 634.6508943880074 600 316.20189707873254 Q 1050 614.2666816894337 1200 318.45322389040354 Q 1650 586.3490966580127 1800 304.86195369779733 Q 2250 637.380333204139 2400 308.4744831540113 L 2400 800 L 0 800 L 0 331.9936101527187 Z" transform="matrix(1,0,0,1,0,245)" opacity="1"></path></g></svg>
