<svg xmlns="http://www.w3.org/2000/svg" xmlns:xlink="http://www.w3.org/1999/xlink" version="1.1" width="1000" height="1000" viewBox="0 0 1000 1000" xml:space="preserve">
<desc>Created with Fabric.js 3.5.0</desc>
<defs>
</defs>
<rect x="0" y="0" width="100%" height="100%" fill="#ffffff"/>
<g transform="matrix(0.4167 0 0 -0.4167 500.04 218.4029)" id="754508">
<g style="" vector-effect="non-scaling-stroke">
		<g transform="matrix(1 0 0 1 -0.0001 295)">
<path style="stroke: none; stroke-width: 1; stroke-dasharray: none; stroke-linecap: butt; stroke-dashoffset: 0; stroke-linejoin: miter; stroke-miterlimit: 4; is-custom-font: none; font-file-url: none; fill: rgb(208,226,255); fill-rule: nonzero; opacity: 0.05;" transform=" translate(-1189.1717, -438.9998)" d="M -10 10 C 33.75 12.916666666666668 114.58333333333334 29.208333333333336 200 24 C 285.41666666666663 18.791666666666664 316.66666666666663 -16.25 400 -15 C 483.33333333333337 -13.75 516.6666666666666 27.916666666666668 600 30 C 683.3333333333334 32.083333333333336 716.6666666666666 -3.75 800 -5 C 883.3333333333334 -6.25 916.6666666666666 25.666666666666668 1000 24 C 1083.3333333333333 22.333333333333332 1116.6666666666667 -19.041666666666664 1200 -13 C 1283.3333333333333 -6.958333333333334 1316.6666666666667 54.875 1400 53 C 1483.3333333333333 51.125 1516.6666666666667 -21.791666666666668 1600 -22 C 1683.3333333333333 -22.208333333333332 1716.6666666666667 47.208333333333336 1800 52 C 1883.3333333333333 56.791666666666664 1916.6666666666667 2.875 2000 1 C 2083.3333333333335 -0.875 2118.75 41.125 2200 43 C 2281.25 44.875 2296.25 -64.375 2390 10 C 2483.75 84.375 3252.0833333333335 214.58333333333331 2650 400 C 2047.9166666666665 585.4166666666667 156.25 795.8333333333334 -500 900" stroke-linecap="round"/>
</g>
		<g transform="matrix(1 0 0 1 -0.0001 330)">
<path style="stroke: none; stroke-width: 1; stroke-dasharray: none; stroke-linecap: butt; stroke-dashoffset: 0; stroke-linejoin: miter; stroke-miterlimit: 4; is-custom-font: none; font-file-url: none; fill: rgb(208,226,255); fill-rule: nonzero; opacity: 0.21;" transform=" translate(-1189.1717, -438.9998)" d="M -10 10 C 33.75 12.916666666666668 114.58333333333334 29.208333333333336 200 24 C 285.41666666666663 18.791666666666664 316.66666666666663 -16.25 400 -15 C 483.33333333333337 -13.75 516.6666666666666 27.916666666666668 600 30 C 683.3333333333334 32.083333333333336 716.6666666666666 -3.75 800 -5 C 883.3333333333334 -6.25 916.6666666666666 25.666666666666668 1000 24 C 1083.3333333333333 22.333333333333332 1116.6666666666667 -19.041666666666664 1200 -13 C 1283.3333333333333 -6.958333333333334 1316.6666666666667 54.875 1400 53 C 1483.3333333333333 51.125 1516.6666666666667 -21.791666666666668 1600 -22 C 1683.3333333333333 -22.208333333333332 1716.6666666666667 47.208333333333336 1800 52 C 1883.3333333333333 56.791666666666664 1916.6666666666667 2.875 2000 1 C 2083.3333333333335 -0.875 2118.75 41.125 2200 43 C 2281.25 44.875 2296.25 -64.375 2390 10 C 2483.75 84.375 3252.0833333333335 214.58333333333331 2650 400 C 2047.9166666666665 585.4166666666667 156.25 795.8333333333334 -500 900" stroke-linecap="round"/>
</g>
		<g transform="matrix(1 0 0 1 -0.0001 365)">
<path style="stroke: none; stroke-width: 1; stroke-dasharray: none; stroke-linecap: butt; stroke-dashoffset: 0; stroke-linejoin: miter; stroke-miterlimit: 4; is-custom-font: none; font-file-url: none; fill: rgb(208,226,255); fill-rule: nonzero; opacity: 0.37;" transform=" translate(-1189.1717, -438.9998)" d="M -10 10 C 33.75 12.916666666666668 114.58333333333334 29.208333333333336 200 24 C 285.41666666666663 18.791666666666664 316.66666666666663 -16.25 400 -15 C 483.33333333333337 -13.75 516.6666666666666 27.916666666666668 600 30 C 683.3333333333334 32.083333333333336 716.6666666666666 -3.75 800 -5 C 883.3333333333334 -6.25 916.6666666666666 25.666666666666668 1000 24 C 1083.3333333333333 22.333333333333332 1116.6666666666667 -19.041666666666664 1200 -13 C 1283.3333333333333 -6.958333333333334 1316.6666666666667 54.875 1400 53 C 1483.3333333333333 51.125 1516.6666666666667 -21.791666666666668 1600 -22 C 1683.3333333333333 -22.208333333333332 1716.6666666666667 47.208333333333336 1800 52 C 1883.3333333333333 56.791666666666664 1916.6666666666667 2.875 2000 1 C 2083.3333333333335 -0.875 2118.75 41.125 2200 43 C 2281.25 44.875 2296.25 -64.375 2390 10 C 2483.75 84.375 3252.0833333333335 214.58333333333331 2650 400 C 2047.9166666666665 585.4166666666667 156.25 795.8333333333334 -500 900" stroke-linecap="round"/>
</g>
		<g transform="matrix(1 0 0 1 -0.0001 400)">
<path style="stroke: none; stroke-width: 1; stroke-dasharray: none; stroke-linecap: butt; stroke-dashoffset: 0; stroke-linejoin: miter; stroke-miterlimit: 4; is-custom-font: none; font-file-url: none; fill: rgb(208,226,255); fill-rule: nonzero; opacity: 0.53;" transform=" translate(-1189.1717, -438.9998)" d="M -10 10 C 33.75 12.916666666666668 114.58333333333334 29.208333333333336 200 24 C 285.41666666666663 18.791666666666664 316.66666666666663 -16.25 400 -15 C 483.33333333333337 -13.75 516.6666666666666 27.916666666666668 600 30 C 683.3333333333334 32.083333333333336 716.6666666666666 -3.75 800 -5 C 883.3333333333334 -6.25 916.6666666666666 25.666666666666668 1000 24 C 1083.3333333333333 22.333333333333332 1116.6666666666667 -19.041666666666664 1200 -13 C 1283.3333333333333 -6.958333333333334 1316.6666666666667 54.875 1400 53 C 1483.3333333333333 51.125 1516.6666666666667 -21.791666666666668 1600 -22 C 1683.3333333333333 -22.208333333333332 1716.6666666666667 47.208333333333336 1800 52 C 1883.3333333333333 56.791666666666664 1916.6666666666667 2.875 2000 1 C 2083.3333333333335 -0.875 2118.75 41.125 2200 43 C 2281.25 44.875 2296.25 -64.375 2390 10 C 2483.75 84.375 3252.0833333333335 214.58333333333331 2650 400 C 2047.9166666666665 585.4166666666667 156.25 795.8333333333334 -500 900" stroke-linecap="round"/>
</g>
		<g transform="matrix(1 0 0 1 -0.0001 435)">
<path style="stroke: none; stroke-width: 1; stroke-dasharray: none; stroke-linecap: butt; stroke-dashoffset: 0; stroke-linejoin: miter; stroke-miterlimit: 4; is-custom-font: none; font-file-url: none; fill: rgb(208,226,255); fill-rule: nonzero; opacity: 0.68;" transform=" translate(-1189.1717, -438.9998)" d="M -10 10 C 33.75 12.916666666666668 114.58333333333334 29.208333333333336 200 24 C 285.41666666666663 18.791666666666664 316.66666666666663 -16.25 400 -15 C 483.33333333333337 -13.75 516.6666666666666 27.916666666666668 600 30 C 683.3333333333334 32.083333333333336 716.6666666666666 -3.75 800 -5 C 883.3333333333334 -6.25 916.6666666666666 25.666666666666668 1000 24 C 1083.3333333333333 22.333333333333332 1116.6666666666667 -19.041666666666664 1200 -13 C 1283.3333333333333 -6.958333333333334 1316.6666666666667 54.875 1400 53 C 1483.3333333333333 51.125 1516.6666666666667 -21.791666666666668 1600 -22 C 1683.3333333333333 -22.208333333333332 1716.6666666666667 47.208333333333336 1800 52 C 1883.3333333333333 56.791666666666664 1916.6666666666667 2.875 2000 1 C 2083.3333333333335 -0.875 2118.75 41.125 2200 43 C 2281.25 44.875 2296.25 -64.375 2390 10 C 2483.75 84.375 3252.0833333333335 214.58333333333331 2650 400 C 2047.9166666666665 585.4166666666667 156.25 795.8333333333334 -500 900" stroke-linecap="round"/>
</g>
		<g transform="matrix(1 0 0 1 -0.0001 470)">
<path style="stroke: none; stroke-width: 1; stroke-dasharray: none; stroke-linecap: butt; stroke-dashoffset: 0; stroke-linejoin: miter; stroke-miterlimit: 4; is-custom-font: none; font-file-url: none; fill: rgb(208,226,255); fill-rule: nonzero; opacity: 0.84;" transform=" translate(-1189.1717, -438.9998)" d="M -10 10 C 33.75 12.916666666666668 114.58333333333334 29.208333333333336 200 24 C 285.41666666666663 18.791666666666664 316.66666666666663 -16.25 400 -15 C 483.33333333333337 -13.75 516.6666666666666 27.916666666666668 600 30 C 683.3333333333334 32.083333333333336 716.6666666666666 -3.75 800 -5 C 883.3333333333334 -6.25 916.6666666666666 25.666666666666668 1000 24 C 1083.3333333333333 22.333333333333332 1116.6666666666667 -19.041666666666664 1200 -13 C 1283.3333333333333 -6.958333333333334 1316.6666666666667 54.875 1400 53 C 1483.3333333333333 51.125 1516.6666666666667 -21.791666666666668 1600 -22 C 1683.3333333333333 -22.208333333333332 1716.6666666666667 47.208333333333336 1800 52 C 1883.3333333333333 56.791666666666664 1916.6666666666667 2.875 2000 1 C 2083.3333333333335 -0.875 2118.75 41.125 2200 43 C 2281.25 44.875 2296.25 -64.375 2390 10 C 2483.75 84.375 3252.0833333333335 214.58333333333331 2650 400 C 2047.9166666666665 585.4166666666667 156.25 795.8333333333334 -500 900" stroke-linecap="round"/>
</g>
		<g transform="matrix(1 0 0 1 -0.0001 505)">
<path style="stroke: none; stroke-width: 1; stroke-dasharray: none; stroke-linecap: butt; stroke-dashoffset: 0; stroke-linejoin: miter; stroke-miterlimit: 4; is-custom-font: none; font-file-url: none; fill: rgb(208,226,255); fill-rule: nonzero; opacity: 1;" transform=" translate(-1189.1717, -438.9998)" d="M -10 10 C 33.75 12.916666666666668 114.58333333333334 29.208333333333336 200 24 C 285.41666666666663 18.791666666666664 316.66666666666663 -16.25 400 -15 C 483.33333333333337 -13.75 516.6666666666666 27.916666666666668 600 30 C 683.3333333333334 32.083333333333336 716.6666666666666 -3.75 800 -5 C 883.3333333333334 -6.25 916.6666666666666 25.666666666666668 1000 24 C 1083.3333333333333 22.333333333333332 1116.6666666666667 -19.041666666666664 1200 -13 C 1283.3333333333333 -6.958333333333334 1316.6666666666667 54.875 1400 53 C 1483.3333333333333 51.125 1516.6666666666667 -21.791666666666668 1600 -22 C 1683.3333333333333 -22.208333333333332 1716.6666666666667 47.208333333333336 1800 52 C 1883.3333333333333 56.791666666666664 1916.6666666666667 2.875 2000 1 C 2083.3333333333335 -0.875 2118.75 41.125 2200 43 C 2281.25 44.875 2296.25 -64.375 2390 10 C 2483.75 84.375 3252.0833333333335 214.58333333333331 2650 400 C 2047.9166666666665 585.4166666666667 156.25 795.8333333333334 -500 900" stroke-linecap="round"/>
</g>
</g>
</g>
</svg>