<svg xmlns="http://www.w3.org/2000/svg" version="1.1" xmlnsXlink="http://www.w3.org/1999/xlink" xmlnsSvgjs="http://svgjs.dev/svgjs" viewBox="0 0 2400 800"><defs><linearGradient x1="50%" y1="0%" x2="50%" y2="100%" id="sssurf-grad"><stop stop-color="hsl(208, 77%, 50%)" stop-opacity="1" offset="0%"></stop><stop stop-color="hsl(208, 74%, 93%)" stop-opacity="1" offset="100%"></stop></linearGradient></defs><g fill="#d0e2ff" transform="matrix(1,0,0,1,10.8282470703125,221.00022220611572)"><path d="M-10,10C33.75,12.916666666666668,114.58333333333334,29.208333333333336,200,24C285.41666666666663,18.791666666666664,316.66666666666663,-16.25,400,-15C483.33333333333337,-13.75,516.6666666666666,27.916666666666668,600,30C683.3333333333334,32.083333333333336,716.6666666666666,-3.75,800,-5C883.3333333333334,-6.25,916.6666666666666,25.666666666666668,1000,24C1083.3333333333333,22.333333333333332,1116.6666666666667,-19.041666666666664,1200,-13C1283.3333333333333,-6.958333333333334,1316.6666666666667,54.875,1400,53C1483.3333333333333,51.125,1516.6666666666667,-21.791666666666668,1600,-22C1683.3333333333333,-22.208333333333332,1716.6666666666667,47.208333333333336,1800,52C1883.3333333333333,56.791666666666664,1916.6666666666667,2.875,2000,1C2083.3333333333335,-0.875,2118.75,41.125,2200,43C2281.25,44.875,2296.25,-64.375,2390,10C2483.75,84.375,3252.0833333333335,214.58333333333331,2650,400C2047.9166666666665,585.4166666666667,156.25,795.8333333333334,-500,900" transform="matrix(1,0,0,1,0,35)" opacity="0.05"></path><path d="M-10,10C33.75,12.916666666666668,114.58333333333334,29.208333333333336,200,24C285.41666666666663,18.791666666666664,316.66666666666663,-16.25,400,-15C483.33333333333337,-13.75,516.6666666666666,27.916666666666668,600,30C683.3333333333334,32.083333333333336,716.6666666666666,-3.75,800,-5C883.3333333333334,-6.25,916.6666666666666,25.666666666666668,1000,24C1083.3333333333333,22.333333333333332,1116.6666666666667,-19.041666666666664,1200,-13C1283.3333333333333,-6.958333333333334,1316.6666666666667,54.875,1400,53C1483.3333333333333,51.125,1516.6666666666667,-21.791666666666668,1600,-22C1683.3333333333333,-22.208333333333332,1716.6666666666667,47.208333333333336,1800,52C1883.3333333333333,56.791666666666664,1916.6666666666667,2.875,2000,1C2083.3333333333335,-0.875,2118.75,41.125,2200,43C2281.25,44.875,2296.25,-64.375,2390,10C2483.75,84.375,3252.0833333333335,214.58333333333331,2650,400C2047.9166666666665,585.4166666666667,156.25,795.8333333333334,-500,900" transform="matrix(1,0,0,1,0,70)" opacity="0.21"></path><path d="M-10,10C33.75,12.916666666666668,114.58333333333334,29.208333333333336,200,24C285.41666666666663,18.791666666666664,316.66666666666663,-16.25,400,-15C483.33333333333337,-13.75,516.6666666666666,27.916666666666668,600,30C683.3333333333334,32.083333333333336,716.6666666666666,-3.75,800,-5C883.3333333333334,-6.25,916.6666666666666,25.666666666666668,1000,24C1083.3333333333333,22.333333333333332,1116.6666666666667,-19.041666666666664,1200,-13C1283.3333333333333,-6.958333333333334,1316.6666666666667,54.875,1400,53C1483.3333333333333,51.125,1516.6666666666667,-21.791666666666668,1600,-22C1683.3333333333333,-22.208333333333332,1716.6666666666667,47.208333333333336,1800,52C1883.3333333333333,56.791666666666664,1916.6666666666667,2.875,2000,1C2083.3333333333335,-0.875,2118.75,41.125,2200,43C2281.25,44.875,2296.25,-64.375,2390,10C2483.75,84.375,3252.0833333333335,214.58333333333331,2650,400C2047.9166666666665,585.4166666666667,156.25,795.8333333333334,-500,900" transform="matrix(1,0,0,1,0,105)" opacity="0.37"></path><path d="M-10,10C33.75,12.916666666666668,114.58333333333334,29.208333333333336,200,24C285.41666666666663,18.791666666666664,316.66666666666663,-16.25,400,-15C483.33333333333337,-13.75,516.6666666666666,27.916666666666668,600,30C683.3333333333334,32.083333333333336,716.6666666666666,-3.75,800,-5C883.3333333333334,-6.25,916.6666666666666,25.666666666666668,1000,24C1083.3333333333333,22.333333333333332,1116.6666666666667,-19.041666666666664,1200,-13C1283.3333333333333,-6.958333333333334,1316.6666666666667,54.875,1400,53C1483.3333333333333,51.125,1516.6666666666667,-21.791666666666668,1600,-22C1683.3333333333333,-22.208333333333332,1716.6666666666667,47.208333333333336,1800,52C1883.3333333333333,56.791666666666664,1916.6666666666667,2.875,2000,1C2083.3333333333335,-0.875,2118.75,41.125,2200,43C2281.25,44.875,2296.25,-64.375,2390,10C2483.75,84.375,3252.0833333333335,214.58333333333331,2650,400C2047.9166666666665,585.4166666666667,156.25,795.8333333333334,-500,900" transform="matrix(1,0,0,1,0,140)" opacity="0.53"></path><path d="M-10,10C33.75,12.916666666666668,114.58333333333334,29.208333333333336,200,24C285.41666666666663,18.791666666666664,316.66666666666663,-16.25,400,-15C483.33333333333337,-13.75,516.6666666666666,27.916666666666668,600,30C683.3333333333334,32.083333333333336,716.6666666666666,-3.75,800,-5C883.3333333333334,-6.25,916.6666666666666,25.666666666666668,1000,24C1083.3333333333333,22.333333333333332,1116.6666666666667,-19.041666666666664,1200,-13C1283.3333333333333,-6.958333333333334,1316.6666666666667,54.875,1400,53C1483.3333333333333,51.125,1516.6666666666667,-21.791666666666668,1600,-22C1683.3333333333333,-22.208333333333332,1716.6666666666667,47.208333333333336,1800,52C1883.3333333333333,56.791666666666664,1916.6666666666667,2.875,2000,1C2083.3333333333335,-0.875,2118.75,41.125,2200,43C2281.25,44.875,2296.25,-64.375,2390,10C2483.75,84.375,3252.0833333333335,214.58333333333331,2650,400C2047.9166666666665,585.4166666666667,156.25,795.8333333333334,-500,900" transform="matrix(1,0,0,1,0,175)" opacity="0.68"></path><path d="M-10,10C33.75,12.916666666666668,114.58333333333334,29.208333333333336,200,24C285.41666666666663,18.791666666666664,316.66666666666663,-16.25,400,-15C483.33333333333337,-13.75,516.6666666666666,27.916666666666668,600,30C683.3333333333334,32.083333333333336,716.6666666666666,-3.75,800,-5C883.3333333333334,-6.25,916.6666666666666,25.666666666666668,1000,24C1083.3333333333333,22.333333333333332,1116.6666666666667,-19.041666666666664,1200,-13C1283.3333333333333,-6.958333333333334,1316.6666666666667,54.875,1400,53C1483.3333333333333,51.125,1516.6666666666667,-21.791666666666668,1600,-22C1683.3333333333333,-22.208333333333332,1716.6666666666667,47.208333333333336,1800,52C1883.3333333333333,56.791666666666664,1916.6666666666667,2.875,2000,1C2083.3333333333335,-0.875,2118.75,41.125,2200,43C2281.25,44.875,2296.25,-64.375,2390,10C2483.75,84.375,3252.0833333333335,214.58333333333331,2650,400C2047.9166666666665,585.4166666666667,156.25,795.8333333333334,-500,900" transform="matrix(1,0,0,1,0,210)" opacity="0.84"></path><path d="M-10,10C33.75,12.916666666666668,114.58333333333334,29.208333333333336,200,24C285.41666666666663,18.791666666666664,316.66666666666663,-16.25,400,-15C483.33333333333337,-13.75,516.6666666666666,27.916666666666668,600,30C683.3333333333334,32.083333333333336,716.6666666666666,-3.75,800,-5C883.3333333333334,-6.25,916.6666666666666,25.666666666666668,1000,24C1083.3333333333333,22.333333333333332,1116.6666666666667,-19.041666666666664,1200,-13C1283.3333333333333,-6.958333333333334,1316.6666666666667,54.875,1400,53C1483.3333333333333,51.125,1516.6666666666667,-21.791666666666668,1600,-22C1683.3333333333333,-22.208333333333332,1716.6666666666667,47.208333333333336,1800,52C1883.3333333333333,56.791666666666664,1916.6666666666667,2.875,2000,1C2083.3333333333335,-0.875,2118.75,41.125,2200,43C2281.25,44.875,2296.25,-64.375,2390,10C2483.75,84.375,3252.0833333333335,214.58333333333331,2650,400C2047.9166666666665,585.4166666666667,156.25,795.8333333333334,-500,900" transform="matrix(1,0,0,1,0,245)" opacity="1"></path></g></svg>
