<svg class="m-auto my-10" width="300" viewBox="0 0 687 155" xmlns="http://www.w3.org/2000/svg"><g stroke="#a2c0f0" stroke-width="7" fill="none" fill-rule="evenodd" stroke-linecap="round" stroke-linejoin="round"><path d="M20 58c27-13.33333333 54-20 81-20 40.5 0 40.5 20 81 20s40.626917-20 81-20 40.123083 20 80.5 20 40.5-20 81-20 40.5 20 81 20 40.626917-20 81-20c26.915389 0 53.748722 6.66666667 80.5 20" opacity=".1"></path><path d="M20 78c27-13.3333333 54-20 81-20 40.5 0 40.5 20 81 20s40.626917-20 81-20 40.123083 20 80.5 20 40.5-20 81-20 40.5 20 81 20 40.626917-20 81-20c26.915389 0 53.748722 6.6666667 80.5 20" opacity=".2"></path><path d="M20 98c27-13.3333333 54-20 81-20 40.5 0 40.5 20 81 20s40.626917-20 81-20 40.123083 20 80.5 20 40.5-20 81-20 40.5 20 81 20 40.626917-20 81-20c26.915389 0 53.748722 6.6666667 80.5 20" opacity=".6"></path><path d="M20 118c27-13.3333333 54-20 81-20 40.5 0 40.5 20 81 20s40.626917-20 81-20 40.123083 20 80.5 20 40.5-20 81-20 40.5 20 81 20 40.626917-20 81-20c26.915389 0 53.748722 6.6666667 80.5 20"></path></g></svg>
